<svg xmlns="http://www.w3.org/2000/svg" xmlns:xlink="http://www.w3.org/1999/xlink" width="24" height="24" preserveAspectRatio="xMidYMid meet" viewBox="0 0 24 24" style="-ms-transform: rotate(360deg); -webkit-transform: rotate(360deg); transform: rotate(360deg);"><g fill="none"><path d="M15.47 11.293a1 1 0 1 0-1.415 1.414a1 1 0 0 0 1.415-1.414z" fill="black"/><path d="M16.177 9.172a1 1 0 1 1 1.414 1.414a1 1 0 0 1-1.414-1.414z" fill="black"/><path d="M19.712 11.293a1 1 0 1 0-1.414 1.414a1 1 0 0 0 1.414-1.414z" fill="black"/><path d="M16.177 13.414a1 1 0 1 1 1.414 1.415a1 1 0 0 1-1.414-1.415z" fill="black"/><path d="M6 13H4v-2h2V9h2v2h2v2H8v2H6v-2z" fill="black"/><path fill-rule="evenodd" clip-rule="evenodd" d="M7 5a7 7 0 0 0 0 14h10a7 7 0 1 0 0-14H7zm10 2H7a5 5 0 0 0 0 10h10a5 5 0 0 0 0-10z" fill="black"/></g><rect x="0" y="0" width="24" height="24" fill="rgba(0, 0, 0, 0)" /></svg>